<?xml version="1.0" encoding="UTF-8"?>
<svg id="Layer_2" data-name="Layer 2" xmlns="http://www.w3.org/2000/svg" viewBox="0 0 179.83 213.13">
  <defs>
    <style>
      .cls-1 {
        fill: #f95d07;
      }

      .cls-1, .cls-2 {
        stroke-width: 0px;
      }

      .cls-2 {
        fill: #23b069;
      }
    </style>
  </defs>
  <g id="Layer_1-2" data-name="Layer 1">
    <g>
      <path class="cls-2" d="M18.32,154.85l11.66-66.94H0l7.66-43.29h13.32c11.99,0,18.32-7.99,22.31-31.3l2.33-13.32h51.62l-7.99,44.62h37.63l-7.66,43.29h-36.63l-11.32,63.27c-2.33,13.32,3,19.65,14.32,19.65,6.66,0,14.99-1.33,21.65-3.33l-.33,39.96c-10.99,3.66-23.31,5.66-35.63,5.66-39.63,0-58.61-24.98-52.95-58.28Z"/>
      <path class="cls-1" d="M118.22,185.49c0-17.65,15.65-32.97,33.3-32.97,16.65,0,28.31,12.65,28.31,27.64,0,17.65-15.65,32.97-33.63,32.97-15.99,0-27.97-12.32-27.97-27.64Z"/>
    </g>
  </g>
</svg>