<?xml version="1.0" encoding="UTF-8"?>
<svg id="Layer_2" data-name="Layer 2" xmlns="http://www.w3.org/2000/svg" viewBox="0 0 410.31 153.32">
  <defs>
    <style>
      .cls-1 {
        stroke-width: 0px;
      }
    </style>
  </defs>
  <g id="Layer_1-2" data-name="Layer 1">
    <g>
      <path class="cls-1" d="M10.11,85.48l6.43-36.95H0l4.23-23.9h7.35c6.62,0,10.11-4.41,12.32-17.28l1.29-7.35h28.5l-4.41,24.63h20.77l-4.23,23.9h-20.22l-6.25,34.93c-1.29,7.35,1.65,10.85,7.91,10.85,3.68,0,8.27-.74,11.95-1.84l-.18,22.06c-6.07,2.02-12.87,3.13-19.67,3.13-21.88,0-32.36-13.79-29.23-32.17Z"/>
      <path class="cls-1" d="M65.26,102.4c0-9.74,8.64-18.2,18.38-18.2,9.19,0,15.63,6.99,15.63,15.26,0,9.74-8.64,18.2-18.57,18.2-8.82,0-15.44-6.8-15.44-15.26Z"/>
      <path class="cls-1" d="M121.33,24.63h28.68l-.74,4.6c6.8-4.6,14.71-6.8,23.71-6.8,26.29,0,43.2,18.02,43.2,42.47,0,28.68-20.77,53.86-50.56,53.86-12.87,0-22.8-3.86-29.96-11.21l-8.09,45.78h-28.86L121.33,24.63ZM163.25,93.02c13.24,0,24.45-10.66,24.45-24.63,0-11.4-8.64-20.22-21.14-20.22-13.24,0-24.45,10.66-24.45,24.63,0,11.4,8.64,20.22,21.14,20.22Z"/>
      <path class="cls-1" d="M222.62,75.01c0-29.23,23.71-52.58,53.86-52.58,27.02,0,46.88,18.2,46.88,43.75,0,29.05-23.53,52.58-53.86,52.58-27.02,0-46.88-18.2-46.88-43.75ZM271.15,93.02c14.16,0,23.71-12.13,23.71-25,0-11.4-8.09-19.85-20.04-19.85-12.87,0-23.72,10.66-23.72,25,0,11.4,8.09,19.85,20.04,19.85Z"/>
      <path class="cls-1" d="M326.67,88.79l24.45-4.04c0,7.35,7.17,12.87,16.91,12.87,5.88,0,9.38-2.21,9.38-5.7,0-3.31-3.13-5.88-11.03-9.19l-10.48-4.41c-12.69-5.33-19.3-13.6-19.3-24.27,0-18.57,14.52-31.62,35.11-31.62,22.43,0,37.87,12.5,38.61,31.07l-23.9,2.21c-1.47-7.54-6.99-12.13-14.89-12.13-5.15,0-8.27,2.39-8.27,5.88s1.84,5.51,10.85,9.01l10.29,4.04c12.87,5.15,19.67,13.6,19.67,24.63,0,18.57-15.08,31.62-36.77,31.62-23.16,0-40.63-12.87-40.63-29.97Z"/>
    </g>
  </g>
</svg>